<mxfile host="app.diagrams.net" modified="2022-06-11T05:21:59.161Z" agent="5.0 (X11)" etag="HRYGICFS4Y-fL2maIV7O" version="19.0.2" type="github">
  <diagram id="u_mYsZftPLxaitnnNMeE" name="Page-1">
    <mxGraphModel dx="1447" dy="802" grid="1" gridSize="10" guides="1" tooltips="1" connect="1" arrows="1" fold="1" page="1" pageScale="1" pageWidth="827" pageHeight="1169" math="0" shadow="0">
      <root>
        <mxCell id="0" />
        <mxCell id="1" parent="0" />
        <mxCell id="_CULSkSqQlY8-LVSlBSp-328" style="edgeStyle=orthogonalEdgeStyle;rounded=0;orthogonalLoop=1;jettySize=auto;html=1;entryX=0;entryY=0.5;entryDx=0;entryDy=0;endArrow=none;endFill=0;shape=link;" parent="1" source="_CULSkSqQlY8-LVSlBSp-329" target="_CULSkSqQlY8-LVSlBSp-331" edge="1">
          <mxGeometry relative="1" as="geometry" />
        </mxCell>
        <mxCell id="_CULSkSqQlY8-LVSlBSp-329" value="Alimento" style="whiteSpace=wrap;html=1;align=center;fillColor=#dae8fc;strokeColor=#6c8ebf;" parent="1" vertex="1">
          <mxGeometry x="1630" y="1423.75" width="100" height="40" as="geometry" />
        </mxCell>
        <mxCell id="_CULSkSqQlY8-LVSlBSp-330" style="edgeStyle=none;rounded=0;orthogonalLoop=1;jettySize=auto;html=1;exitX=0.5;exitY=1;exitDx=0;exitDy=0;entryX=0.5;entryY=0;entryDx=0;entryDy=0;endArrow=none;endFill=0;" parent="1" source="_CULSkSqQlY8-LVSlBSp-331" target="_CULSkSqQlY8-LVSlBSp-335" edge="1">
          <mxGeometry relative="1" as="geometry" />
        </mxCell>
        <mxCell id="_CULSkSqQlY8-LVSlBSp-331" value="d" style="triangle;whiteSpace=wrap;html=1;direction=south;fillColor=#f5f5f5;fontColor=#333333;strokeColor=#666666;" parent="1" vertex="1">
          <mxGeometry x="1650" y="1503.75" width="60" height="30" as="geometry" />
        </mxCell>
        <mxCell id="_CULSkSqQlY8-LVSlBSp-332" style="edgeStyle=none;rounded=0;orthogonalLoop=1;jettySize=auto;html=1;entryX=0.5;entryY=0;entryDx=0;entryDy=0;endArrow=none;endFill=0;" parent="1" source="_CULSkSqQlY8-LVSlBSp-333" target="_CULSkSqQlY8-LVSlBSp-331" edge="1">
          <mxGeometry relative="1" as="geometry">
            <mxPoint x="1760" y="1517.5000000000002" as="targetPoint" />
          </mxGeometry>
        </mxCell>
        <mxCell id="K5OSy2VEWzIT5m9NS0dP-1" style="edgeStyle=orthogonalEdgeStyle;rounded=0;orthogonalLoop=1;jettySize=auto;html=1;entryX=1;entryY=0.5;entryDx=0;entryDy=0;" parent="1" source="K5OSy2VEWzIT5m9NS0dP-2" target="_CULSkSqQlY8-LVSlBSp-335" edge="1">
          <mxGeometry relative="1" as="geometry">
            <mxPoint x="1800" y="1584" as="sourcePoint" />
          </mxGeometry>
        </mxCell>
        <mxCell id="_CULSkSqQlY8-LVSlBSp-333" value="Salsa" style="whiteSpace=wrap;html=1;align=center;fillColor=#dae8fc;strokeColor=#6c8ebf;" parent="1" vertex="1">
          <mxGeometry x="1825" y="1568.75" width="70" height="30" as="geometry" />
        </mxCell>
        <mxCell id="_CULSkSqQlY8-LVSlBSp-334" style="edgeStyle=none;rounded=0;orthogonalLoop=1;jettySize=auto;html=1;exitX=0.5;exitY=1;exitDx=0;exitDy=0;entryX=0.5;entryY=0;entryDx=0;entryDy=0;endArrow=none;endFill=0;" parent="1" source="_CULSkSqQlY8-LVSlBSp-335" target="_CULSkSqQlY8-LVSlBSp-483" edge="1">
          <mxGeometry relative="1" as="geometry" />
        </mxCell>
        <mxCell id="_CULSkSqQlY8-LVSlBSp-335" value="Platillo" style="whiteSpace=wrap;html=1;align=center;fillColor=#dae8fc;strokeColor=#6c8ebf;" parent="1" vertex="1">
          <mxGeometry x="1570" y="1568.75" width="70" height="30" as="geometry" />
        </mxCell>
        <mxCell id="_CULSkSqQlY8-LVSlBSp-336" style="edgeStyle=none;rounded=0;orthogonalLoop=1;jettySize=auto;html=1;entryX=0.5;entryY=0;entryDx=0;entryDy=0;endArrow=none;endFill=0;" parent="1" source="_CULSkSqQlY8-LVSlBSp-337" target="_CULSkSqQlY8-LVSlBSp-343" edge="1">
          <mxGeometry relative="1" as="geometry" />
        </mxCell>
        <mxCell id="_CULSkSqQlY8-LVSlBSp-337" value="precio" style="ellipse;whiteSpace=wrap;html=1;align=center;rotation=0;fillColor=#d5e8d4;strokeColor=#82b366;" parent="1" vertex="1">
          <mxGeometry x="1920" y="1280" width="50" height="30" as="geometry" />
        </mxCell>
        <mxCell id="_CULSkSqQlY8-LVSlBSp-338" style="rounded=0;orthogonalLoop=1;jettySize=auto;html=1;exitX=1;exitY=1;exitDx=0;exitDy=0;entryX=0.25;entryY=0;entryDx=0;entryDy=0;endArrow=none;endFill=0;" parent="1" source="_CULSkSqQlY8-LVSlBSp-339" target="_CULSkSqQlY8-LVSlBSp-343" edge="1">
          <mxGeometry relative="1" as="geometry" />
        </mxCell>
        <mxCell id="_CULSkSqQlY8-LVSlBSp-339" value="nombre" style="ellipse;whiteSpace=wrap;html=1;align=center;fontStyle=0;rotation=0;fillColor=#d5e8d4;strokeColor=#82b366;" parent="1" vertex="1">
          <mxGeometry x="1820" y="1372.5" width="70" height="30" as="geometry" />
        </mxCell>
        <mxCell id="_CULSkSqQlY8-LVSlBSp-340" style="edgeStyle=none;rounded=0;orthogonalLoop=1;jettySize=auto;html=1;exitX=0;exitY=0.5;exitDx=0;exitDy=0;entryX=0.75;entryY=0;entryDx=0;entryDy=0;endArrow=none;endFill=0;" parent="1" source="_CULSkSqQlY8-LVSlBSp-341" target="_CULSkSqQlY8-LVSlBSp-343" edge="1">
          <mxGeometry relative="1" as="geometry" />
        </mxCell>
        <mxCell id="_CULSkSqQlY8-LVSlBSp-341" value="cantidad&amp;nbsp;" style="ellipse;whiteSpace=wrap;html=1;align=center;fillColor=#d5e8d4;strokeColor=#82b366;" parent="1" vertex="1">
          <mxGeometry x="2010" y="1380" width="80" height="27.5" as="geometry" />
        </mxCell>
        <mxCell id="_CULSkSqQlY8-LVSlBSp-342" style="rounded=0;orthogonalLoop=1;jettySize=auto;html=1;exitX=0.5;exitY=1;exitDx=0;exitDy=0;entryX=0.5;entryY=0;entryDx=0;entryDy=0;endArrow=none;endFill=0;" parent="1" source="_CULSkSqQlY8-LVSlBSp-343" target="_CULSkSqQlY8-LVSlBSp-484" edge="1">
          <mxGeometry relative="1" as="geometry" />
        </mxCell>
        <mxCell id="_CULSkSqQlY8-LVSlBSp-343" value="Insumo" style="whiteSpace=wrap;html=1;align=center;fillColor=#dae8fc;strokeColor=#6c8ebf;" parent="1" vertex="1">
          <mxGeometry x="1890" y="1420" width="100" height="40" as="geometry" />
        </mxCell>
        <mxCell id="_CULSkSqQlY8-LVSlBSp-344" style="edgeStyle=none;rounded=0;orthogonalLoop=1;jettySize=auto;html=1;entryX=0.5;entryY=0;entryDx=0;entryDy=0;endArrow=none;endFill=0;" parent="1" source="_CULSkSqQlY8-LVSlBSp-345" target="_CULSkSqQlY8-LVSlBSp-329" edge="1">
          <mxGeometry relative="1" as="geometry" />
        </mxCell>
        <mxCell id="_CULSkSqQlY8-LVSlBSp-345" value="costo" style="ellipse;whiteSpace=wrap;html=1;align=center;dashed=1;fillColor=#d5e8d4;strokeColor=#82b366;" parent="1" vertex="1">
          <mxGeometry x="1717.5" y="1367.5" width="65" height="30" as="geometry" />
        </mxCell>
        <mxCell id="_CULSkSqQlY8-LVSlBSp-346" style="edgeStyle=none;rounded=0;orthogonalLoop=1;jettySize=auto;html=1;endArrow=none;endFill=0;entryX=0.25;entryY=0;entryDx=0;entryDy=0;" parent="1" source="_CULSkSqQlY8-LVSlBSp-347" target="_CULSkSqQlY8-LVSlBSp-329" edge="1">
          <mxGeometry relative="1" as="geometry">
            <mxPoint x="1650" y="1420" as="targetPoint" />
          </mxGeometry>
        </mxCell>
        <mxCell id="_CULSkSqQlY8-LVSlBSp-347" value="idProducto" style="ellipse;whiteSpace=wrap;html=1;align=center;fontStyle=4;fillColor=#d5e8d4;strokeColor=#82b366;" parent="1" vertex="1">
          <mxGeometry x="1590" y="1357.5" width="70" height="35" as="geometry" />
        </mxCell>
        <mxCell id="_CULSkSqQlY8-LVSlBSp-348" style="edgeStyle=none;rounded=0;orthogonalLoop=1;jettySize=auto;html=1;entryX=0;entryY=0.5;entryDx=0;entryDy=0;endArrow=none;endFill=0;exitX=1;exitY=0.5;exitDx=0;exitDy=0;" parent="1" source="_CULSkSqQlY8-LVSlBSp-350" target="_CULSkSqQlY8-LVSlBSp-343" edge="1">
          <mxGeometry relative="1" as="geometry">
            <mxPoint x="1850" y="1448.75" as="sourcePoint" />
          </mxGeometry>
        </mxCell>
        <mxCell id="_CULSkSqQlY8-LVSlBSp-349" style="edgeStyle=none;rounded=0;orthogonalLoop=1;jettySize=auto;html=1;exitX=0;exitY=0.5;exitDx=0;exitDy=0;entryX=1;entryY=0.5;entryDx=0;entryDy=0;endArrow=none;endFill=0;shape=link;" parent="1" source="_CULSkSqQlY8-LVSlBSp-350" target="_CULSkSqQlY8-LVSlBSp-329" edge="1">
          <mxGeometry relative="1" as="geometry" />
        </mxCell>
        <mxCell id="_CULSkSqQlY8-LVSlBSp-350" value="Contener" style="shape=rhombus;perimeter=rhombusPerimeter;whiteSpace=wrap;html=1;align=center;fillColor=#fff2cc;strokeColor=#d6b656;" parent="1" vertex="1">
          <mxGeometry x="1770" y="1423.75" width="80" height="40" as="geometry" />
        </mxCell>
        <mxCell id="_CULSkSqQlY8-LVSlBSp-351" style="edgeStyle=none;rounded=0;orthogonalLoop=1;jettySize=auto;html=1;endArrow=none;endFill=0;entryX=0.5;entryY=1;entryDx=0;entryDy=0;" parent="1" source="_CULSkSqQlY8-LVSlBSp-352" target="_CULSkSqQlY8-LVSlBSp-350" edge="1">
          <mxGeometry relative="1" as="geometry">
            <mxPoint x="1810" y="1473.75" as="targetPoint" />
          </mxGeometry>
        </mxCell>
        <mxCell id="_CULSkSqQlY8-LVSlBSp-352" value="porcion" style="ellipse;whiteSpace=wrap;html=1;align=center;fillColor=#d5e8d4;strokeColor=#82b366;" parent="1" vertex="1">
          <mxGeometry x="1775" y="1493.75" width="70" height="30" as="geometry" />
        </mxCell>
        <mxCell id="_CULSkSqQlY8-LVSlBSp-353" style="edgeStyle=none;rounded=0;orthogonalLoop=1;jettySize=auto;html=1;entryX=0;entryY=0.5;entryDx=0;entryDy=0;endArrow=none;endFill=0;" parent="1" source="_CULSkSqQlY8-LVSlBSp-357" target="_CULSkSqQlY8-LVSlBSp-329" edge="1">
          <mxGeometry relative="1" as="geometry" />
        </mxCell>
        <mxCell id="_CULSkSqQlY8-LVSlBSp-354" style="edgeStyle=none;rounded=0;orthogonalLoop=1;jettySize=auto;html=1;exitX=0;exitY=0.5;exitDx=0;exitDy=0;endArrow=none;endFill=0;shape=link;startArrow=none;" parent="1" target="_CULSkSqQlY8-LVSlBSp-443" edge="1">
          <mxGeometry relative="1" as="geometry">
            <mxPoint x="1455" y="1443.75" as="targetPoint" />
            <mxPoint x="1470" y="1443.75" as="sourcePoint" />
          </mxGeometry>
        </mxCell>
        <mxCell id="_CULSkSqQlY8-LVSlBSp-355" style="edgeStyle=none;rounded=0;orthogonalLoop=1;jettySize=auto;html=1;exitX=0;exitY=0;exitDx=0;exitDy=0;entryX=0.5;entryY=1;entryDx=0;entryDy=0;endArrow=none;endFill=0;" parent="1" source="_CULSkSqQlY8-LVSlBSp-357" target="_CULSkSqQlY8-LVSlBSp-358" edge="1">
          <mxGeometry relative="1" as="geometry" />
        </mxCell>
        <mxCell id="_CULSkSqQlY8-LVSlBSp-357" value="Incluir" style="shape=rhombus;perimeter=rhombusPerimeter;whiteSpace=wrap;html=1;align=center;fillColor=#fff2cc;strokeColor=#d6b656;" parent="1" vertex="1">
          <mxGeometry x="1490" y="1418.75" width="100" height="50" as="geometry" />
        </mxCell>
        <mxCell id="_CULSkSqQlY8-LVSlBSp-358" value="precio" style="ellipse;whiteSpace=wrap;html=1;align=center;fillColor=#d5e8d4;strokeColor=#82b366;" parent="1" vertex="1">
          <mxGeometry x="1467.5" y="1373.75" width="75" height="30" as="geometry" />
        </mxCell>
        <mxCell id="_CULSkSqQlY8-LVSlBSp-360" value="sucursal" style="whiteSpace=wrap;html=1;align=center;fillColor=#dae8fc;strokeColor=#6c8ebf;" parent="1" vertex="1">
          <mxGeometry x="150" y="1410" width="120" height="40" as="geometry" />
        </mxCell>
        <mxCell id="_CULSkSqQlY8-LVSlBSp-361" style="edgeStyle=none;rounded=0;orthogonalLoop=1;jettySize=auto;html=1;endArrow=none;endFill=0;" parent="1" source="_CULSkSqQlY8-LVSlBSp-362" target="_CULSkSqQlY8-LVSlBSp-360" edge="1">
          <mxGeometry relative="1" as="geometry" />
        </mxCell>
        <mxCell id="_CULSkSqQlY8-LVSlBSp-362" value="idSucursal" style="ellipse;whiteSpace=wrap;html=1;align=center;fontStyle=4;fillColor=#d5e8d4;strokeColor=#82b366;" parent="1" vertex="1">
          <mxGeometry x="140" y="1337.5" width="70" height="40" as="geometry" />
        </mxCell>
        <mxCell id="_CULSkSqQlY8-LVSlBSp-363" style="edgeStyle=none;rounded=0;orthogonalLoop=1;jettySize=auto;html=1;entryX=0.5;entryY=0;entryDx=0;entryDy=0;endArrow=none;endFill=0;" parent="1" source="_CULSkSqQlY8-LVSlBSp-364" target="_CULSkSqQlY8-LVSlBSp-360" edge="1">
          <mxGeometry relative="1" as="geometry" />
        </mxCell>
        <mxCell id="_CULSkSqQlY8-LVSlBSp-364" value="domicilio" style="ellipse;whiteSpace=wrap;html=1;align=center;fillColor=#d5e8d4;strokeColor=#82b366;" parent="1" vertex="1">
          <mxGeometry x="190" y="1300" width="100" height="40" as="geometry" />
        </mxCell>
        <mxCell id="_CULSkSqQlY8-LVSlBSp-365" style="edgeStyle=none;rounded=0;orthogonalLoop=1;jettySize=auto;html=1;entryX=0.725;entryY=0;entryDx=0;entryDy=0;entryPerimeter=0;endArrow=none;endFill=0;" parent="1" source="_CULSkSqQlY8-LVSlBSp-366" target="_CULSkSqQlY8-LVSlBSp-360" edge="1">
          <mxGeometry relative="1" as="geometry" />
        </mxCell>
        <mxCell id="_CULSkSqQlY8-LVSlBSp-366" value="telefono" style="ellipse;whiteSpace=wrap;html=1;align=center;fillColor=#d5e8d4;strokeColor=#82b366;" parent="1" vertex="1">
          <mxGeometry x="305" y="1337.5" width="75" height="40" as="geometry" />
        </mxCell>
        <mxCell id="_CULSkSqQlY8-LVSlBSp-367" style="edgeStyle=none;rounded=0;orthogonalLoop=1;jettySize=auto;html=1;entryX=0.683;entryY=0.023;entryDx=0;entryDy=0;entryPerimeter=0;endArrow=none;endFill=0;" parent="1" source="_CULSkSqQlY8-LVSlBSp-368" target="_CULSkSqQlY8-LVSlBSp-360" edge="1">
          <mxGeometry relative="1" as="geometry" />
        </mxCell>
        <mxCell id="_CULSkSqQlY8-LVSlBSp-368" value="correo" style="ellipse;whiteSpace=wrap;html=1;align=center;fillColor=#d5e8d4;strokeColor=#82b366;" parent="1" vertex="1">
          <mxGeometry x="235" y="1346.25" width="60" height="40" as="geometry" />
        </mxCell>
        <mxCell id="_CULSkSqQlY8-LVSlBSp-369" style="edgeStyle=none;rounded=0;orthogonalLoop=1;jettySize=auto;html=1;entryX=0.417;entryY=0;entryDx=0;entryDy=0;entryPerimeter=0;endArrow=none;endFill=0;" parent="1" source="_CULSkSqQlY8-LVSlBSp-370" target="_CULSkSqQlY8-LVSlBSp-360" edge="1">
          <mxGeometry relative="1" as="geometry" />
        </mxCell>
        <mxCell id="_CULSkSqQlY8-LVSlBSp-370" value="rfc" style="ellipse;whiteSpace=wrap;html=1;align=center;fillColor=#d5e8d4;strokeColor=#82b366;" parent="1" vertex="1">
          <mxGeometry x="80" y="1360" width="50" height="40" as="geometry" />
        </mxCell>
        <mxCell id="_CULSkSqQlY8-LVSlBSp-371" style="edgeStyle=none;rounded=0;orthogonalLoop=1;jettySize=auto;html=1;entryX=0.5;entryY=1;entryDx=0;entryDy=0;endArrow=none;endFill=0;" parent="1" source="_CULSkSqQlY8-LVSlBSp-372" target="_CULSkSqQlY8-LVSlBSp-384" edge="1">
          <mxGeometry relative="1" as="geometry" />
        </mxCell>
        <mxCell id="_CULSkSqQlY8-LVSlBSp-372" value="Empleado" style="whiteSpace=wrap;html=1;align=center;fillColor=#dae8fc;strokeColor=#6c8ebf;" parent="1" vertex="1">
          <mxGeometry x="668.75" y="1410" width="71.25" height="40" as="geometry" />
        </mxCell>
        <mxCell id="_CULSkSqQlY8-LVSlBSp-373" style="edgeStyle=none;rounded=0;orthogonalLoop=1;jettySize=auto;html=1;entryX=0.5;entryY=1;entryDx=0;entryDy=0;endArrow=none;endFill=0;shape=link;startArrow=none;" parent="1" source="_CULSkSqQlY8-LVSlBSp-502" target="_CULSkSqQlY8-LVSlBSp-372" edge="1">
          <mxGeometry relative="1" as="geometry">
            <mxPoint x="704.3785" y="1485" as="sourcePoint" />
          </mxGeometry>
        </mxCell>
        <mxCell id="_CULSkSqQlY8-LVSlBSp-376" style="edgeStyle=none;rounded=0;orthogonalLoop=1;jettySize=auto;html=1;entryX=0.5;entryY=0;entryDx=0;entryDy=0;endArrow=none;endFill=0;" parent="1" source="_CULSkSqQlY8-LVSlBSp-377" target="_CULSkSqQlY8-LVSlBSp-502" edge="1">
          <mxGeometry relative="1" as="geometry" />
        </mxCell>
        <mxCell id="_CULSkSqQlY8-LVSlBSp-377" value="Repartidor" style="whiteSpace=wrap;html=1;align=center;fillColor=#dae8fc;strokeColor=#6c8ebf;" parent="1" vertex="1">
          <mxGeometry x="880" y="1570" width="80" height="40" as="geometry" />
        </mxCell>
        <mxCell id="_CULSkSqQlY8-LVSlBSp-378" style="edgeStyle=none;rounded=0;orthogonalLoop=1;jettySize=auto;html=1;entryX=0.5;entryY=0;entryDx=0;entryDy=0;endArrow=none;endFill=0;" parent="1" source="_CULSkSqQlY8-LVSlBSp-380" target="_CULSkSqQlY8-LVSlBSp-384" edge="1">
          <mxGeometry relative="1" as="geometry" />
        </mxCell>
        <mxCell id="_CULSkSqQlY8-LVSlBSp-379" style="rounded=0;orthogonalLoop=1;jettySize=auto;html=1;exitX=0.5;exitY=1;exitDx=0;exitDy=0;endArrow=none;endFill=0;" parent="1" source="_CULSkSqQlY8-LVSlBSp-380" target="_CULSkSqQlY8-LVSlBSp-489" edge="1">
          <mxGeometry relative="1" as="geometry" />
        </mxCell>
        <mxCell id="_CULSkSqQlY8-LVSlBSp-380" value="Cliente" style="whiteSpace=wrap;html=1;align=center;fillColor=#dae8fc;strokeColor=#6c8ebf;" parent="1" vertex="1">
          <mxGeometry x="828.75" y="1410" width="71.25" height="40" as="geometry" />
        </mxCell>
        <mxCell id="_CULSkSqQlY8-LVSlBSp-381" style="edgeStyle=none;rounded=0;orthogonalLoop=1;jettySize=auto;html=1;entryX=0.5;entryY=1;entryDx=0;entryDy=0;endArrow=none;endFill=0;" parent="1" source="_CULSkSqQlY8-LVSlBSp-382" target="_CULSkSqQlY8-LVSlBSp-396" edge="1">
          <mxGeometry relative="1" as="geometry" />
        </mxCell>
        <mxCell id="_CULSkSqQlY8-LVSlBSp-382" value="Persona" style="whiteSpace=wrap;html=1;align=center;fillColor=#dae8fc;strokeColor=#6c8ebf;" parent="1" vertex="1">
          <mxGeometry x="767.5" y="1260" width="61.25" height="40" as="geometry" />
        </mxCell>
        <mxCell id="_CULSkSqQlY8-LVSlBSp-383" style="edgeStyle=none;rounded=0;orthogonalLoop=1;jettySize=auto;html=1;endArrow=none;endFill=0;" parent="1" source="_CULSkSqQlY8-LVSlBSp-384" target="_CULSkSqQlY8-LVSlBSp-382" edge="1">
          <mxGeometry relative="1" as="geometry" />
        </mxCell>
        <mxCell id="_CULSkSqQlY8-LVSlBSp-384" value="o" style="triangle;whiteSpace=wrap;html=1;direction=south;fillColor=#f5f5f5;fontColor=#333333;strokeColor=#666666;" parent="1" vertex="1">
          <mxGeometry x="768.75" y="1340" width="60" height="30" as="geometry" />
        </mxCell>
        <mxCell id="_CULSkSqQlY8-LVSlBSp-385" style="edgeStyle=none;rounded=0;orthogonalLoop=1;jettySize=auto;html=1;entryX=0.25;entryY=0;entryDx=0;entryDy=0;endArrow=none;endFill=0;" parent="1" source="_CULSkSqQlY8-LVSlBSp-386" target="_CULSkSqQlY8-LVSlBSp-382" edge="1">
          <mxGeometry relative="1" as="geometry" />
        </mxCell>
        <mxCell id="_CULSkSqQlY8-LVSlBSp-386" value="nombreCompleto" style="ellipse;whiteSpace=wrap;html=1;align=center;fillColor=#d5e8d4;strokeColor=#82b366;" parent="1" vertex="1">
          <mxGeometry x="654.38" y="1200" width="100" height="40" as="geometry" />
        </mxCell>
        <mxCell id="_CULSkSqQlY8-LVSlBSp-387" style="edgeStyle=none;rounded=0;orthogonalLoop=1;jettySize=auto;html=1;entryX=0.75;entryY=0;entryDx=0;entryDy=0;endArrow=none;endFill=0;" parent="1" source="_CULSkSqQlY8-LVSlBSp-388" target="_CULSkSqQlY8-LVSlBSp-382" edge="1">
          <mxGeometry relative="1" as="geometry" />
        </mxCell>
        <mxCell id="_CULSkSqQlY8-LVSlBSp-388" value="direccion" style="ellipse;whiteSpace=wrap;html=1;align=center;fillColor=#d5e8d4;strokeColor=#82b366;" parent="1" vertex="1">
          <mxGeometry x="870" y="1220" width="60" height="30" as="geometry" />
        </mxCell>
        <mxCell id="_CULSkSqQlY8-LVSlBSp-389" style="edgeStyle=none;rounded=0;orthogonalLoop=1;jettySize=auto;html=1;entryX=0.25;entryY=0;entryDx=0;entryDy=0;endArrow=none;endFill=0;" parent="1" source="_CULSkSqQlY8-LVSlBSp-390" target="_CULSkSqQlY8-LVSlBSp-382" edge="1">
          <mxGeometry relative="1" as="geometry" />
        </mxCell>
        <mxCell id="_CULSkSqQlY8-LVSlBSp-390" value="correo" style="ellipse;whiteSpace=wrap;html=1;align=center;fillColor=#d5e8d4;strokeColor=#82b366;" parent="1" vertex="1">
          <mxGeometry x="730" y="1160" width="60" height="30" as="geometry" />
        </mxCell>
        <mxCell id="_CULSkSqQlY8-LVSlBSp-391" style="edgeStyle=none;rounded=0;orthogonalLoop=1;jettySize=auto;html=1;entryX=0.75;entryY=0;entryDx=0;entryDy=0;endArrow=none;endFill=0;" parent="1" source="_CULSkSqQlY8-LVSlBSp-392" target="_CULSkSqQlY8-LVSlBSp-382" edge="1">
          <mxGeometry relative="1" as="geometry" />
        </mxCell>
        <mxCell id="_CULSkSqQlY8-LVSlBSp-392" value="telefono" style="ellipse;whiteSpace=wrap;html=1;align=center;fillColor=#d5e8d4;strokeColor=#82b366;" parent="1" vertex="1">
          <mxGeometry x="860" y="1170" width="60" height="30" as="geometry" />
        </mxCell>
        <mxCell id="_CULSkSqQlY8-LVSlBSp-393" style="edgeStyle=orthogonalEdgeStyle;rounded=0;orthogonalLoop=1;jettySize=auto;html=1;entryX=0.5;entryY=0;entryDx=0;entryDy=0;endArrow=none;endFill=0;exitX=0;exitY=0.5;exitDx=0;exitDy=0;" parent="1" source="_CULSkSqQlY8-LVSlBSp-395" target="_CULSkSqQlY8-LVSlBSp-384" edge="1">
          <mxGeometry relative="1" as="geometry">
            <Array as="points">
              <mxPoint x="1040" y="1140" />
              <mxPoint x="1040" y="1355" />
            </Array>
          </mxGeometry>
        </mxCell>
        <mxCell id="_CULSkSqQlY8-LVSlBSp-394" style="edgeStyle=orthogonalEdgeStyle;rounded=0;orthogonalLoop=1;jettySize=auto;html=1;entryX=0;entryY=0.5;entryDx=0;entryDy=0;endArrow=none;endFill=0;shape=link;" parent="1" source="_CULSkSqQlY8-LVSlBSp-395" target="_CULSkSqQlY8-LVSlBSp-470" edge="1">
          <mxGeometry relative="1" as="geometry" />
        </mxCell>
        <mxCell id="_CULSkSqQlY8-LVSlBSp-395" value="Provedor" style="whiteSpace=wrap;html=1;align=center;fillColor=#dae8fc;strokeColor=#6c8ebf;" parent="1" vertex="1">
          <mxGeometry x="1380" y="1120" width="100" height="40" as="geometry" />
        </mxCell>
        <mxCell id="_CULSkSqQlY8-LVSlBSp-396" value="idPersona" style="ellipse;whiteSpace=wrap;html=1;align=center;fontStyle=4;fillColor=#d5e8d4;strokeColor=#82b366;" parent="1" vertex="1">
          <mxGeometry x="780" y="1190" width="71.25" height="30" as="geometry" />
        </mxCell>
        <mxCell id="_CULSkSqQlY8-LVSlBSp-397" style="edgeStyle=none;rounded=0;orthogonalLoop=1;jettySize=auto;html=1;entryX=0;entryY=0;entryDx=0;entryDy=0;endArrow=none;endFill=0;" parent="1" source="_CULSkSqQlY8-LVSlBSp-398" target="_CULSkSqQlY8-LVSlBSp-386" edge="1">
          <mxGeometry relative="1" as="geometry" />
        </mxCell>
        <mxCell id="_CULSkSqQlY8-LVSlBSp-398" value="nombre" style="ellipse;whiteSpace=wrap;html=1;align=center;fillColor=#d5e8d4;strokeColor=#82b366;" parent="1" vertex="1">
          <mxGeometry x="568.75" y="1180" width="60" height="30" as="geometry" />
        </mxCell>
        <mxCell id="_CULSkSqQlY8-LVSlBSp-399" style="edgeStyle=none;rounded=0;orthogonalLoop=1;jettySize=auto;html=1;endArrow=none;endFill=0;" parent="1" source="_CULSkSqQlY8-LVSlBSp-400" target="_CULSkSqQlY8-LVSlBSp-386" edge="1">
          <mxGeometry relative="1" as="geometry" />
        </mxCell>
        <mxCell id="_CULSkSqQlY8-LVSlBSp-400" value="apellidoP" style="ellipse;whiteSpace=wrap;html=1;align=center;fillColor=#d5e8d4;strokeColor=#82b366;" parent="1" vertex="1">
          <mxGeometry x="580.63" y="1140" width="68.75" height="30" as="geometry" />
        </mxCell>
        <mxCell id="_CULSkSqQlY8-LVSlBSp-401" style="edgeStyle=none;rounded=0;orthogonalLoop=1;jettySize=auto;html=1;endArrow=none;endFill=0;" parent="1" source="_CULSkSqQlY8-LVSlBSp-402" target="_CULSkSqQlY8-LVSlBSp-386" edge="1">
          <mxGeometry relative="1" as="geometry" />
        </mxCell>
        <mxCell id="_CULSkSqQlY8-LVSlBSp-402" value="apellidoM" style="ellipse;whiteSpace=wrap;html=1;align=center;fillColor=#d5e8d4;strokeColor=#82b366;" parent="1" vertex="1">
          <mxGeometry x="655.62" y="1130" width="71.25" height="30" as="geometry" />
        </mxCell>
        <mxCell id="_CULSkSqQlY8-LVSlBSp-403" style="edgeStyle=none;rounded=0;orthogonalLoop=1;jettySize=auto;html=1;entryX=0;entryY=0.75;entryDx=0;entryDy=0;endArrow=none;endFill=0;" parent="1" source="_CULSkSqQlY8-LVSlBSp-404" target="_CULSkSqQlY8-LVSlBSp-372" edge="1">
          <mxGeometry relative="1" as="geometry" />
        </mxCell>
        <mxCell id="_CULSkSqQlY8-LVSlBSp-404" value="edad&lt;span style=&quot;color: rgba(0 , 0 , 0 , 0) ; font-family: monospace ; font-size: 0px&quot;&gt;%3CmxGraphModel%3E%3Croot%3E%3CmxCell%20id%3D%220%22%2F%3E%3CmxCell%20id%3D%221%22%20parent%3D%220%22%2F%3E%3CmxCell%20id%3D%222%22%20value%3D%22Apellido%20Paterno%22%20style%3D%22ellipse%3BwhiteSpace%3Dwrap%3Bhtml%3D1%3Balign%3Dcenter%3B%22%20vertex%3D%221%22%20parent%3D%221%22%3E%3CmxGeometry%20x%3D%22390%22%20y%3D%22-730%22%20width%3D%22100%22%20height%3D%2240%22%20as%3D%22geometry%22%2F%3E%3C%2FmxCell%3E%3C%2Froot%3E%3C%2FmxGraphModel%3E&lt;/span&gt;" style="ellipse;whiteSpace=wrap;html=1;align=center;fillColor=#d5e8d4;strokeColor=#82b366;" parent="1" vertex="1">
          <mxGeometry x="590" y="1450" width="60" height="30" as="geometry" />
        </mxCell>
        <mxCell id="_CULSkSqQlY8-LVSlBSp-405" style="edgeStyle=none;rounded=0;orthogonalLoop=1;jettySize=auto;html=1;entryX=0.5;entryY=0;entryDx=0;entryDy=0;endArrow=none;endFill=0;" parent="1" source="_CULSkSqQlY8-LVSlBSp-406" target="_CULSkSqQlY8-LVSlBSp-372" edge="1">
          <mxGeometry relative="1" as="geometry" />
        </mxCell>
        <mxCell id="_CULSkSqQlY8-LVSlBSp-406" value="nss" style="ellipse;whiteSpace=wrap;html=1;align=center;rotation=0;fillColor=#d5e8d4;strokeColor=#82b366;" parent="1" vertex="1">
          <mxGeometry x="707.5" y="1337.5" width="61.25" height="30" as="geometry" />
        </mxCell>
        <mxCell id="_CULSkSqQlY8-LVSlBSp-407" style="edgeStyle=none;rounded=0;orthogonalLoop=1;jettySize=auto;html=1;entryX=0.5;entryY=0;entryDx=0;entryDy=0;endArrow=none;endFill=0;" parent="1" source="_CULSkSqQlY8-LVSlBSp-408" target="_CULSkSqQlY8-LVSlBSp-372" edge="1">
          <mxGeometry relative="1" as="geometry" />
        </mxCell>
        <mxCell id="_CULSkSqQlY8-LVSlBSp-408" value="antiguedad" style="ellipse;whiteSpace=wrap;html=1;align=center;dashed=1;fillColor=#d5e8d4;strokeColor=#82b366;" parent="1" vertex="1">
          <mxGeometry x="570" y="1325" width="90" height="30" as="geometry" />
        </mxCell>
        <mxCell id="_CULSkSqQlY8-LVSlBSp-409" style="edgeStyle=none;rounded=0;orthogonalLoop=1;jettySize=auto;html=1;endArrow=none;endFill=0;shape=link;" parent="1" source="_CULSkSqQlY8-LVSlBSp-411" target="_CULSkSqQlY8-LVSlBSp-372" edge="1">
          <mxGeometry relative="1" as="geometry" />
        </mxCell>
        <mxCell id="_CULSkSqQlY8-LVSlBSp-410" style="edgeStyle=orthogonalEdgeStyle;rounded=0;orthogonalLoop=1;jettySize=auto;html=1;entryX=1;entryY=0.5;entryDx=0;entryDy=0;" parent="1" source="_CULSkSqQlY8-LVSlBSp-411" target="_CULSkSqQlY8-LVSlBSp-360" edge="1">
          <mxGeometry relative="1" as="geometry" />
        </mxCell>
        <mxCell id="_CULSkSqQlY8-LVSlBSp-411" value="Trabajar" style="shape=rhombus;perimeter=rhombusPerimeter;whiteSpace=wrap;html=1;align=center;fillColor=#fff2cc;strokeColor=#d6b656;" parent="1" vertex="1">
          <mxGeometry x="430" y="1400" width="120" height="60" as="geometry" />
        </mxCell>
        <mxCell id="_CULSkSqQlY8-LVSlBSp-412" style="edgeStyle=none;rounded=0;orthogonalLoop=1;jettySize=auto;html=1;endArrow=none;endFill=0;" parent="1" source="_CULSkSqQlY8-LVSlBSp-413" target="_CULSkSqQlY8-LVSlBSp-411" edge="1">
          <mxGeometry relative="1" as="geometry" />
        </mxCell>
        <mxCell id="_CULSkSqQlY8-LVSlBSp-413" value="fechaIngreso" style="ellipse;whiteSpace=wrap;html=1;align=center;fillColor=#d5e8d4;strokeColor=#82b366;" parent="1" vertex="1">
          <mxGeometry x="440" y="1330" width="100" height="40" as="geometry" />
        </mxCell>
        <mxCell id="_CULSkSqQlY8-LVSlBSp-414" style="edgeStyle=none;rounded=0;orthogonalLoop=1;jettySize=auto;html=1;entryX=0;entryY=0.5;entryDx=0;entryDy=0;endArrow=none;endFill=0;" parent="1" source="_CULSkSqQlY8-LVSlBSp-415" target="_CULSkSqQlY8-LVSlBSp-416" edge="1">
          <mxGeometry relative="1" as="geometry" />
        </mxCell>
        <mxCell id="_CULSkSqQlY8-LVSlBSp-415" value="transporte" style="whiteSpace=wrap;html=1;align=center;fillColor=#dae8fc;strokeColor=#6c8ebf;" parent="1" vertex="1">
          <mxGeometry x="1170" y="1570" width="80" height="40" as="geometry" />
        </mxCell>
        <mxCell id="_CULSkSqQlY8-LVSlBSp-416" value="o" style="triangle;whiteSpace=wrap;html=1;direction=south;fillColor=#f5f5f5;fontColor=#333333;strokeColor=#666666;" parent="1" vertex="1">
          <mxGeometry x="1180" y="1640" width="60" height="30" as="geometry" />
        </mxCell>
        <mxCell id="_CULSkSqQlY8-LVSlBSp-417" style="edgeStyle=none;rounded=0;orthogonalLoop=1;jettySize=auto;html=1;entryX=0.5;entryY=1;entryDx=0;entryDy=0;endArrow=none;endFill=0;" parent="1" source="_CULSkSqQlY8-LVSlBSp-418" target="_CULSkSqQlY8-LVSlBSp-416" edge="1">
          <mxGeometry relative="1" as="geometry" />
        </mxCell>
        <mxCell id="_CULSkSqQlY8-LVSlBSp-418" value="Motocicleta&lt;span style=&quot;color: rgba(0, 0, 0, 0); font-family: monospace; font-size: 0px; text-align: start;&quot;&gt;%3CmxGraphModel%3E%3Croot%3E%3CmxCell%20id%3D%220%22%2F%3E%3CmxCell%20id%3D%221%22%20parent%3D%220%22%2F%3E%3CmxCell%20id%3D%222%22%20value%3D%22Transporte%22%20style%3D%22whiteSpace%3Dwrap%3Bhtml%3D1%3Balign%3Dcenter%3B%22%20vertex%3D%221%22%20parent%3D%221%22%3E%3CmxGeometry%20x%3D%221050%22%20y%3D%22-270%22%20width%3D%22100%22%20height%3D%2240%22%20as%3D%22geometry%22%2F%3E%3C%2FmxCell%3E%3C%2Froot%3E%3C%2FmxGraphModel%3E&lt;/span&gt;" style="whiteSpace=wrap;html=1;align=center;fillColor=#dae8fc;strokeColor=#6c8ebf;" parent="1" vertex="1">
          <mxGeometry x="1110" y="1690" width="80" height="40" as="geometry" />
        </mxCell>
        <mxCell id="_CULSkSqQlY8-LVSlBSp-419" style="edgeStyle=none;rounded=0;orthogonalLoop=1;jettySize=auto;html=1;entryX=0.5;entryY=0;entryDx=0;entryDy=0;endArrow=none;endFill=0;" parent="1" source="_CULSkSqQlY8-LVSlBSp-420" target="_CULSkSqQlY8-LVSlBSp-416" edge="1">
          <mxGeometry relative="1" as="geometry" />
        </mxCell>
        <mxCell id="_CULSkSqQlY8-LVSlBSp-420" value="Bicicleta" style="whiteSpace=wrap;html=1;align=center;fillColor=#dae8fc;strokeColor=#6c8ebf;" parent="1" vertex="1">
          <mxGeometry x="1240" y="1690" width="80" height="40" as="geometry" />
        </mxCell>
        <mxCell id="_CULSkSqQlY8-LVSlBSp-421" style="edgeStyle=none;rounded=0;orthogonalLoop=1;jettySize=auto;html=1;entryX=0.5;entryY=1;entryDx=0;entryDy=0;endArrow=none;endFill=0;" parent="1" source="_CULSkSqQlY8-LVSlBSp-422" target="_CULSkSqQlY8-LVSlBSp-418" edge="1">
          <mxGeometry relative="1" as="geometry" />
        </mxCell>
        <mxCell id="_CULSkSqQlY8-LVSlBSp-422" value="noLicencia" style="ellipse;whiteSpace=wrap;html=1;align=center;fillColor=#d5e8d4;strokeColor=#82b366;" parent="1" vertex="1">
          <mxGeometry x="1100" y="1757.5" width="80" height="32.5" as="geometry" />
        </mxCell>
        <mxCell id="_CULSkSqQlY8-LVSlBSp-423" style="edgeStyle=none;rounded=0;orthogonalLoop=1;jettySize=auto;html=1;endArrow=none;endFill=0;" parent="1" source="_CULSkSqQlY8-LVSlBSp-424" target="_CULSkSqQlY8-LVSlBSp-415" edge="1">
          <mxGeometry relative="1" as="geometry" />
        </mxCell>
        <mxCell id="_CULSkSqQlY8-LVSlBSp-424" value="idTransporte" style="ellipse;whiteSpace=wrap;html=1;align=center;fillColor=#d5e8d4;strokeColor=#82b366;" parent="1" vertex="1">
          <mxGeometry x="1120" y="1500" width="80" height="30" as="geometry" />
        </mxCell>
        <mxCell id="_CULSkSqQlY8-LVSlBSp-425" style="edgeStyle=none;rounded=0;orthogonalLoop=1;jettySize=auto;html=1;entryX=0.5;entryY=0;entryDx=0;entryDy=0;endArrow=none;endFill=0;" parent="1" source="_CULSkSqQlY8-LVSlBSp-426" target="_CULSkSqQlY8-LVSlBSp-415" edge="1">
          <mxGeometry relative="1" as="geometry" />
        </mxCell>
        <mxCell id="_CULSkSqQlY8-LVSlBSp-426" value="modelo&lt;span style=&quot;color: rgba(0 , 0 , 0 , 0) ; font-family: monospace ; font-size: 0px&quot;&gt;%3CmxGraphModel%3E%3Croot%3E%3CmxCell%20id%3D%220%22%2F%3E%3CmxCell%20id%3D%221%22%20parent%3D%220%22%2F%3E%3CmxCell%20id%3D%222%22%20value%3D%22Marca%22%20style%3D%22ellipse%3BwhiteSpace%3Dwrap%3Bhtml%3D1%3Balign%3Dcenter%3B%22%20vertex%3D%221%22%20parent%3D%221%22%3E%3CmxGeometry%20x%3D%221010%22%20y%3D%22-390%22%20width%3D%22100%22%20height%3D%2240%22%20as%3D%22geometry%22%2F%3E%3C%2FmxCell%3E%3C%2Froot%3E%3C%2FmxGraphModel%3E&lt;/span&gt;" style="ellipse;whiteSpace=wrap;html=1;align=center;fillColor=#d5e8d4;strokeColor=#82b366;" parent="1" vertex="1">
          <mxGeometry x="1210" y="1510" width="70" height="35" as="geometry" />
        </mxCell>
        <mxCell id="_CULSkSqQlY8-LVSlBSp-427" style="edgeStyle=orthogonalEdgeStyle;rounded=0;orthogonalLoop=1;jettySize=auto;html=1;entryX=0;entryY=0.5;entryDx=0;entryDy=0;" parent="1" source="_CULSkSqQlY8-LVSlBSp-429" target="_CULSkSqQlY8-LVSlBSp-415" edge="1">
          <mxGeometry relative="1" as="geometry" />
        </mxCell>
        <mxCell id="_CULSkSqQlY8-LVSlBSp-428" style="edgeStyle=orthogonalEdgeStyle;rounded=0;orthogonalLoop=1;jettySize=auto;html=1;entryX=1;entryY=0.5;entryDx=0;entryDy=0;" parent="1" source="_CULSkSqQlY8-LVSlBSp-429" target="_CULSkSqQlY8-LVSlBSp-377" edge="1">
          <mxGeometry relative="1" as="geometry" />
        </mxCell>
        <mxCell id="_CULSkSqQlY8-LVSlBSp-429" value="Manejar" style="shape=rhombus;perimeter=rhombusPerimeter;whiteSpace=wrap;html=1;align=center;fillColor=#fff2cc;strokeColor=#d6b656;" parent="1" vertex="1">
          <mxGeometry x="1030" y="1560" width="80" height="60" as="geometry" />
        </mxCell>
        <mxCell id="_CULSkSqQlY8-LVSlBSp-430" style="edgeStyle=none;rounded=0;orthogonalLoop=1;jettySize=auto;html=1;exitX=0;exitY=0;exitDx=0;exitDy=0;entryX=0.5;entryY=1;entryDx=0;entryDy=0;endArrow=none;endFill=0;" parent="1" source="_CULSkSqQlY8-LVSlBSp-431" target="_CULSkSqQlY8-LVSlBSp-380" edge="1">
          <mxGeometry relative="1" as="geometry" />
        </mxCell>
        <mxCell id="_CULSkSqQlY8-LVSlBSp-431" value="noPuntos" style="ellipse;whiteSpace=wrap;html=1;align=center;fillColor=#d5e8d4;strokeColor=#82b366;" parent="1" vertex="1">
          <mxGeometry x="900" y="1470" width="70" height="40" as="geometry" />
        </mxCell>
        <mxCell id="_CULSkSqQlY8-LVSlBSp-432" style="edgeStyle=none;rounded=0;orthogonalLoop=1;jettySize=auto;html=1;entryX=0;entryY=0;entryDx=0;entryDy=0;endArrow=none;endFill=0;" parent="1" source="_CULSkSqQlY8-LVSlBSp-433" target="_CULSkSqQlY8-LVSlBSp-364" edge="1">
          <mxGeometry relative="1" as="geometry" />
        </mxCell>
        <mxCell id="_CULSkSqQlY8-LVSlBSp-433" value="estado" style="ellipse;whiteSpace=wrap;html=1;align=center;fillColor=#d5e8d4;strokeColor=#82b366;" parent="1" vertex="1">
          <mxGeometry x="150" y="1255" width="60" height="30" as="geometry" />
        </mxCell>
        <mxCell id="_CULSkSqQlY8-LVSlBSp-434" style="edgeStyle=none;rounded=0;orthogonalLoop=1;jettySize=auto;html=1;endArrow=none;endFill=0;" parent="1" source="_CULSkSqQlY8-LVSlBSp-435" target="_CULSkSqQlY8-LVSlBSp-364" edge="1">
          <mxGeometry relative="1" as="geometry" />
        </mxCell>
        <mxCell id="_CULSkSqQlY8-LVSlBSp-435" value="municipio" style="ellipse;whiteSpace=wrap;html=1;align=center;fillColor=#d5e8d4;strokeColor=#82b366;" parent="1" vertex="1">
          <mxGeometry x="180" y="1220" width="70" height="30" as="geometry" />
        </mxCell>
        <mxCell id="_CULSkSqQlY8-LVSlBSp-436" style="edgeStyle=none;rounded=0;orthogonalLoop=1;jettySize=auto;html=1;endArrow=none;endFill=0;" parent="1" source="_CULSkSqQlY8-LVSlBSp-437" target="_CULSkSqQlY8-LVSlBSp-364" edge="1">
          <mxGeometry relative="1" as="geometry" />
        </mxCell>
        <mxCell id="_CULSkSqQlY8-LVSlBSp-437" value="calle" style="ellipse;whiteSpace=wrap;html=1;align=center;fillColor=#d5e8d4;strokeColor=#82b366;" parent="1" vertex="1">
          <mxGeometry x="240" y="1250" width="55" height="30" as="geometry" />
        </mxCell>
        <mxCell id="_CULSkSqQlY8-LVSlBSp-438" style="edgeStyle=none;rounded=0;orthogonalLoop=1;jettySize=auto;html=1;entryX=1;entryY=0;entryDx=0;entryDy=0;endArrow=none;endFill=0;" parent="1" source="_CULSkSqQlY8-LVSlBSp-439" target="_CULSkSqQlY8-LVSlBSp-364" edge="1">
          <mxGeometry relative="1" as="geometry" />
        </mxCell>
        <mxCell id="_CULSkSqQlY8-LVSlBSp-439" value="numero" style="ellipse;whiteSpace=wrap;html=1;align=center;fillColor=#d5e8d4;strokeColor=#82b366;" parent="1" vertex="1">
          <mxGeometry x="295" y="1235" width="70" height="30" as="geometry" />
        </mxCell>
        <mxCell id="_CULSkSqQlY8-LVSlBSp-440" style="edgeStyle=none;rounded=0;orthogonalLoop=1;jettySize=auto;html=1;entryX=1;entryY=0;entryDx=0;entryDy=0;endArrow=none;endFill=0;" parent="1" source="_CULSkSqQlY8-LVSlBSp-441" target="_CULSkSqQlY8-LVSlBSp-364" edge="1">
          <mxGeometry relative="1" as="geometry" />
        </mxCell>
        <mxCell id="_CULSkSqQlY8-LVSlBSp-441" value="cp" style="ellipse;whiteSpace=wrap;html=1;align=center;fillColor=#d5e8d4;strokeColor=#82b366;" parent="1" vertex="1">
          <mxGeometry x="325" y="1270" width="55" height="40" as="geometry" />
        </mxCell>
        <mxCell id="_CULSkSqQlY8-LVSlBSp-443" value="Ticket" style="whiteSpace=wrap;html=1;align=center;fillColor=#dae8fc;strokeColor=#6c8ebf;" parent="1" vertex="1">
          <mxGeometry x="1337.5" y="1418.75" width="100" height="50" as="geometry" />
        </mxCell>
        <mxCell id="_CULSkSqQlY8-LVSlBSp-444" style="edgeStyle=orthogonalEdgeStyle;rounded=0;orthogonalLoop=1;jettySize=auto;html=1;entryX=0;entryY=0.5;entryDx=0;entryDy=0;endArrow=none;endFill=0;shape=link;" parent="1" source="_CULSkSqQlY8-LVSlBSp-446" target="_CULSkSqQlY8-LVSlBSp-443" edge="1">
          <mxGeometry relative="1" as="geometry">
            <Array as="points">
              <mxPoint x="1230" y="1279" />
              <mxPoint x="1230" y="1444" />
            </Array>
          </mxGeometry>
        </mxCell>
        <mxCell id="_CULSkSqQlY8-LVSlBSp-445" style="edgeStyle=orthogonalEdgeStyle;rounded=0;orthogonalLoop=1;jettySize=auto;html=1;entryX=1;entryY=0.5;entryDx=0;entryDy=0;" parent="1" source="_CULSkSqQlY8-LVSlBSp-446" target="_CULSkSqQlY8-LVSlBSp-382" edge="1">
          <mxGeometry relative="1" as="geometry" />
        </mxCell>
        <mxCell id="_CULSkSqQlY8-LVSlBSp-446" value="Pagar" style="shape=rhombus;perimeter=rhombusPerimeter;whiteSpace=wrap;html=1;align=center;fillColor=#fff2cc;strokeColor=#d6b656;" parent="1" vertex="1">
          <mxGeometry x="1080" y="1250" width="90" height="60" as="geometry" />
        </mxCell>
        <mxCell id="_CULSkSqQlY8-LVSlBSp-447" style="edgeStyle=none;rounded=0;orthogonalLoop=1;jettySize=auto;html=1;entryX=0.5;entryY=0;entryDx=0;entryDy=0;endArrow=none;endFill=0;" parent="1" source="_CULSkSqQlY8-LVSlBSp-448" target="_CULSkSqQlY8-LVSlBSp-443" edge="1">
          <mxGeometry relative="1" as="geometry" />
        </mxCell>
        <mxCell id="_CULSkSqQlY8-LVSlBSp-448" value="idTicket" style="ellipse;whiteSpace=wrap;html=1;align=center;fontStyle=4;fillColor=#d5e8d4;strokeColor=#82b366;" parent="1" vertex="1">
          <mxGeometry x="1400" y="1278.75" width="70" height="30" as="geometry" />
        </mxCell>
        <mxCell id="_CULSkSqQlY8-LVSlBSp-449" style="edgeStyle=none;rounded=0;orthogonalLoop=1;jettySize=auto;html=1;endArrow=none;endFill=0;" parent="1" source="_CULSkSqQlY8-LVSlBSp-450" target="_CULSkSqQlY8-LVSlBSp-443" edge="1">
          <mxGeometry relative="1" as="geometry" />
        </mxCell>
        <mxCell id="_CULSkSqQlY8-LVSlBSp-450" value="total" style="ellipse;whiteSpace=wrap;html=1;align=center;dashed=1;fillColor=#d5e8d4;strokeColor=#82b366;" parent="1" vertex="1">
          <mxGeometry x="1270" y="1313.75" width="60" height="30" as="geometry" />
        </mxCell>
        <mxCell id="_CULSkSqQlY8-LVSlBSp-451" style="edgeStyle=none;rounded=0;orthogonalLoop=1;jettySize=auto;html=1;exitX=1;exitY=1;exitDx=0;exitDy=0;endArrow=none;endFill=0;" parent="1" source="_CULSkSqQlY8-LVSlBSp-452" target="_CULSkSqQlY8-LVSlBSp-443" edge="1">
          <mxGeometry relative="1" as="geometry" />
        </mxCell>
        <mxCell id="_CULSkSqQlY8-LVSlBSp-452" value="fecha" style="ellipse;whiteSpace=wrap;html=1;align=center;fillColor=#d5e8d4;strokeColor=#82b366;" parent="1" vertex="1">
          <mxGeometry x="1270" y="1363.75" width="60" height="35" as="geometry" />
        </mxCell>
        <mxCell id="_CULSkSqQlY8-LVSlBSp-453" style="edgeStyle=none;rounded=0;orthogonalLoop=1;jettySize=auto;html=1;entryX=0.5;entryY=0;entryDx=0;entryDy=0;endArrow=none;endFill=0;" parent="1" source="_CULSkSqQlY8-LVSlBSp-454" target="_CULSkSqQlY8-LVSlBSp-443" edge="1">
          <mxGeometry relative="1" as="geometry" />
        </mxCell>
        <mxCell id="_CULSkSqQlY8-LVSlBSp-454" value="sucursal" style="ellipse;whiteSpace=wrap;html=1;align=center;dashed=1;fillColor=#d5e8d4;strokeColor=#82b366;" parent="1" vertex="1">
          <mxGeometry x="1350" y="1218.75" width="70" height="30" as="geometry" />
        </mxCell>
        <mxCell id="_CULSkSqQlY8-LVSlBSp-457" style="edgeStyle=none;rounded=0;orthogonalLoop=1;jettySize=auto;html=1;entryX=0.5;entryY=0;entryDx=0;entryDy=0;endArrow=none;endFill=0;" parent="1" source="_CULSkSqQlY8-LVSlBSp-458" target="_CULSkSqQlY8-LVSlBSp-443" edge="1">
          <mxGeometry relative="1" as="geometry" />
        </mxCell>
        <mxCell id="_CULSkSqQlY8-LVSlBSp-458" value="detalle" style="ellipse;whiteSpace=wrap;html=1;align=center;fillColor=#d5e8d4;strokeColor=#82b366;" parent="1" vertex="1">
          <mxGeometry x="1300" y="1263.75" width="60" height="30" as="geometry" />
        </mxCell>
        <mxCell id="_CULSkSqQlY8-LVSlBSp-460" value="" style="edgeStyle=none;rounded=0;orthogonalLoop=1;jettySize=auto;html=1;exitX=0;exitY=0.5;exitDx=0;exitDy=0;endArrow=none;endFill=0;shape=link;" parent="1" source="_CULSkSqQlY8-LVSlBSp-357" edge="1">
          <mxGeometry relative="1" as="geometry">
            <mxPoint x="1490" y="1443.75" as="sourcePoint" />
            <mxPoint x="1470" y="1443.75" as="targetPoint" />
          </mxGeometry>
        </mxCell>
        <mxCell id="_CULSkSqQlY8-LVSlBSp-461" style="edgeStyle=none;rounded=0;orthogonalLoop=1;jettySize=auto;html=1;entryX=0.626;entryY=0.126;entryDx=0;entryDy=0;endArrow=none;endFill=0;entryPerimeter=0;" parent="1" source="_CULSkSqQlY8-LVSlBSp-462" target="_CULSkSqQlY8-LVSlBSp-446" edge="1">
          <mxGeometry relative="1" as="geometry" />
        </mxCell>
        <mxCell id="_CULSkSqQlY8-LVSlBSp-462" value="tipoPago" style="ellipse;whiteSpace=wrap;html=1;align=center;fillColor=#d5e8d4;strokeColor=#82b366;" parent="1" vertex="1">
          <mxGeometry x="1160" y="1198.75" width="70" height="30" as="geometry" />
        </mxCell>
        <mxCell id="_CULSkSqQlY8-LVSlBSp-463" style="edgeStyle=none;rounded=0;orthogonalLoop=1;jettySize=auto;html=1;entryX=0.5;entryY=0;entryDx=0;entryDy=0;endArrow=none;endFill=0;" parent="1" source="_CULSkSqQlY8-LVSlBSp-464" target="_CULSkSqQlY8-LVSlBSp-343" edge="1">
          <mxGeometry relative="1" as="geometry" />
        </mxCell>
        <mxCell id="_CULSkSqQlY8-LVSlBSp-464" value="&lt;span&gt;fechaCompra&lt;/span&gt;" style="ellipse;whiteSpace=wrap;html=1;align=center;fontStyle=0;fillColor=#d5e8d4;strokeColor=#82b366;" parent="1" vertex="1">
          <mxGeometry x="1830" y="1315" width="90" height="35" as="geometry" />
        </mxCell>
        <mxCell id="_CULSkSqQlY8-LVSlBSp-465" style="edgeStyle=none;rounded=0;orthogonalLoop=1;jettySize=auto;html=1;entryX=0.524;entryY=-0.072;entryDx=0;entryDy=0;entryPerimeter=0;endArrow=none;endFill=0;" parent="1" source="_CULSkSqQlY8-LVSlBSp-466" target="_CULSkSqQlY8-LVSlBSp-343" edge="1">
          <mxGeometry relative="1" as="geometry" />
        </mxCell>
        <mxCell id="_CULSkSqQlY8-LVSlBSp-466" value="&lt;div style=&quot;text-align: center&quot;&gt;&lt;span&gt;caducidad&lt;/span&gt;&lt;span style=&quot;color: rgba(0 , 0 , 0 , 0) ; font-family: monospace ; font-size: 0px&quot;&gt;3CmxGraphModel%3E%3Croot%3E%3CmxCell%20id%3D%220%22%2F%3E%3CmxCell%20id%3D%221%22%20parent%3D%220%22%2F%3E%3CmxCell%20id%3D%222%22%20value%3D%22%22%20style%3D%22triangle%3BwhiteSpace%3Dwrap%3Bhtml%3D1%3Brotation%3D-180%3B%22%20vertex%3D%221%22%20parent%3D%221%22%3E%3CmxGeometry%20x%3D%22-330%22%20y%3D%22420%22%20width%3D%2230%22%20height%3D%2230%22%20as%3D%22geometry%22%2F%3E%3C%2FmxCell%3E%3C%2Froot%3E%3C%2FmxGraphModel%&lt;/span&gt;&lt;/div&gt;" style="ellipse;whiteSpace=wrap;html=1;align=center;fillColor=#d5e8d4;strokeColor=#82b366;" parent="1" vertex="1">
          <mxGeometry x="1950" y="1330" width="70" height="42.5" as="geometry" />
        </mxCell>
        <mxCell id="_CULSkSqQlY8-LVSlBSp-467" style="edgeStyle=none;rounded=0;orthogonalLoop=1;jettySize=auto;html=1;entryX=0.5;entryY=0;entryDx=0;entryDy=0;endArrow=none;endFill=0;" parent="1" source="_CULSkSqQlY8-LVSlBSp-468" target="_CULSkSqQlY8-LVSlBSp-343" edge="1">
          <mxGeometry relative="1" as="geometry" />
        </mxCell>
        <mxCell id="_CULSkSqQlY8-LVSlBSp-468" value="marca" style="ellipse;whiteSpace=wrap;html=1;align=center;fillColor=#d5e8d4;strokeColor=#82b366;" parent="1" vertex="1">
          <mxGeometry x="2030" y="1322.5" width="70" height="35" as="geometry" />
        </mxCell>
        <mxCell id="_CULSkSqQlY8-LVSlBSp-469" style="edgeStyle=orthogonalEdgeStyle;rounded=0;orthogonalLoop=1;jettySize=auto;html=1;entryX=1;entryY=0.5;entryDx=0;entryDy=0;endArrow=none;endFill=0;shape=link;exitX=1;exitY=0.5;exitDx=0;exitDy=0;" parent="1" source="_CULSkSqQlY8-LVSlBSp-470" target="_CULSkSqQlY8-LVSlBSp-343" edge="1">
          <mxGeometry relative="1" as="geometry">
            <Array as="points">
              <mxPoint x="2120" y="1140" />
              <mxPoint x="2120" y="1440" />
            </Array>
          </mxGeometry>
        </mxCell>
        <mxCell id="_CULSkSqQlY8-LVSlBSp-470" value="Proveer" style="shape=rhombus;perimeter=rhombusPerimeter;whiteSpace=wrap;html=1;align=center;fillColor=#fff2cc;strokeColor=#d6b656;" parent="1" vertex="1">
          <mxGeometry x="1805" y="1110" width="120" height="60" as="geometry" />
        </mxCell>
        <mxCell id="_CULSkSqQlY8-LVSlBSp-471" style="rounded=0;orthogonalLoop=1;jettySize=auto;html=1;entryX=0.445;entryY=0.019;entryDx=0;entryDy=0;entryPerimeter=0;endArrow=none;endFill=0;" parent="1" source="_CULSkSqQlY8-LVSlBSp-472" target="_CULSkSqQlY8-LVSlBSp-446" edge="1">
          <mxGeometry relative="1" as="geometry" />
        </mxCell>
        <mxCell id="_CULSkSqQlY8-LVSlBSp-472" value="tipoConsumo" style="ellipse;whiteSpace=wrap;html=1;align=center;fillColor=#d5e8d4;strokeColor=#82b366;" parent="1" vertex="1">
          <mxGeometry x="1060" y="1203.75" width="80" height="30" as="geometry" />
        </mxCell>
        <mxCell id="_CULSkSqQlY8-LVSlBSp-473" style="edgeStyle=none;rounded=0;orthogonalLoop=1;jettySize=auto;html=1;endArrow=none;endFill=0;entryX=0.5;entryY=1;entryDx=0;entryDy=0;exitX=0.281;exitY=0.031;exitDx=0;exitDy=0;exitPerimeter=0;" parent="1" source="_CULSkSqQlY8-LVSlBSp-474" edge="1">
          <mxGeometry relative="1" as="geometry">
            <mxPoint x="1880" y="1598.7500000000002" as="targetPoint" />
          </mxGeometry>
        </mxCell>
        <mxCell id="_CULSkSqQlY8-LVSlBSp-474" value="presentacion" style="ellipse;whiteSpace=wrap;html=1;align=center;fillColor=#d5e8d4;strokeColor=#82b366;" parent="1" vertex="1">
          <mxGeometry x="1915" y="1657.5" width="80" height="42.5" as="geometry" />
        </mxCell>
        <mxCell id="_CULSkSqQlY8-LVSlBSp-477" style="edgeStyle=none;rounded=0;orthogonalLoop=1;jettySize=auto;html=1;entryX=0.5;entryY=1;entryDx=0;entryDy=0;endArrow=none;endFill=0;" parent="1" source="_CULSkSqQlY8-LVSlBSp-478" edge="1">
          <mxGeometry relative="1" as="geometry">
            <mxPoint x="1880" y="1598.7500000000002" as="targetPoint" />
          </mxGeometry>
        </mxCell>
        <mxCell id="_CULSkSqQlY8-LVSlBSp-478" value="nivelPicor" style="ellipse;whiteSpace=wrap;html=1;align=center;fillColor=#d5e8d4;strokeColor=#82b366;" parent="1" vertex="1">
          <mxGeometry x="1815" y="1663.75" width="82.5" height="35" as="geometry" />
        </mxCell>
        <mxCell id="_CULSkSqQlY8-LVSlBSp-479" style="edgeStyle=none;rounded=0;orthogonalLoop=1;jettySize=auto;html=1;entryX=0.5;entryY=1;entryDx=0;entryDy=0;endArrow=none;endFill=0;exitX=0.5;exitY=0;exitDx=0;exitDy=0;" parent="1" source="_CULSkSqQlY8-LVSlBSp-480" edge="1">
          <mxGeometry relative="1" as="geometry">
            <mxPoint x="1929.5199167092355" y="1744.6860173462605" as="sourcePoint" />
            <mxPoint x="1880" y="1598.7500000000002" as="targetPoint" />
          </mxGeometry>
        </mxCell>
        <mxCell id="_CULSkSqQlY8-LVSlBSp-480" value="ingredientes" style="ellipse;whiteSpace=wrap;html=1;align=center;dashed=1;fillColor=#d5e8d4;strokeColor=#82b366;" parent="1" vertex="1">
          <mxGeometry x="1755" y="1623.75" width="80" height="37.5" as="geometry" />
        </mxCell>
        <mxCell id="_CULSkSqQlY8-LVSlBSp-481" style="edgeStyle=none;rounded=0;orthogonalLoop=1;jettySize=auto;html=1;entryX=0.5;entryY=0;entryDx=0;entryDy=0;endArrow=none;endFill=0;" parent="1" source="_CULSkSqQlY8-LVSlBSp-482" target="_CULSkSqQlY8-LVSlBSp-372" edge="1">
          <mxGeometry relative="1" as="geometry" />
        </mxCell>
        <mxCell id="_CULSkSqQlY8-LVSlBSp-482" value="salario" style="ellipse;whiteSpace=wrap;html=1;align=center;fillColor=#d5e8d4;strokeColor=#82b366;" parent="1" vertex="1">
          <mxGeometry x="655.62" y="1302.5" width="60" height="30" as="geometry" />
        </mxCell>
        <mxCell id="_CULSkSqQlY8-LVSlBSp-483" value="tipoPlatillo" style="ellipse;whiteSpace=wrap;html=1;align=center;fillColor=#d5e8d4;strokeColor=#82b366;" parent="1" vertex="1">
          <mxGeometry x="1535" y="1618.75" width="75" height="25" as="geometry" />
        </mxCell>
        <mxCell id="_CULSkSqQlY8-LVSlBSp-484" value="idInsumo" style="ellipse;whiteSpace=wrap;html=1;align=center;fontStyle=4;fillColor=#d5e8d4;strokeColor=#82b366;" parent="1" vertex="1">
          <mxGeometry x="1890" y="1485" width="80" height="30" as="geometry" />
        </mxCell>
        <mxCell id="_CULSkSqQlY8-LVSlBSp-485" style="edgeStyle=orthogonalEdgeStyle;rounded=0;orthogonalLoop=1;jettySize=auto;html=1;exitX=0;exitY=0.5;exitDx=0;exitDy=0;entryX=0.5;entryY=1;entryDx=0;entryDy=0;endArrow=classic;endFill=1;" parent="1" source="_CULSkSqQlY8-LVSlBSp-503" target="_CULSkSqQlY8-LVSlBSp-360" edge="1">
          <mxGeometry relative="1" as="geometry">
            <mxPoint x="1080" y="1870" as="sourcePoint" />
          </mxGeometry>
        </mxCell>
        <mxCell id="_CULSkSqQlY8-LVSlBSp-486" style="edgeStyle=orthogonalEdgeStyle;rounded=0;orthogonalLoop=1;jettySize=auto;html=1;exitX=1;exitY=0.5;exitDx=0;exitDy=0;entryX=0.5;entryY=1;entryDx=0;entryDy=0;endArrow=classic;endFill=1;shape=link;" parent="1" source="_CULSkSqQlY8-LVSlBSp-503" target="_CULSkSqQlY8-LVSlBSp-443" edge="1">
          <mxGeometry relative="1" as="geometry">
            <mxPoint x="1180" y="1870" as="sourcePoint" />
          </mxGeometry>
        </mxCell>
        <mxCell id="_CULSkSqQlY8-LVSlBSp-487" style="edgeStyle=none;rounded=0;orthogonalLoop=1;jettySize=auto;html=1;exitX=1;exitY=1;exitDx=0;exitDy=0;endArrow=none;endFill=0;" parent="1" source="_CULSkSqQlY8-LVSlBSp-488" edge="1">
          <mxGeometry relative="1" as="geometry">
            <mxPoint x="769" y="1285" as="targetPoint" />
            <Array as="points" />
          </mxGeometry>
        </mxCell>
        <mxCell id="_CULSkSqQlY8-LVSlBSp-488" value="rfc" style="ellipse;whiteSpace=wrap;html=1;align=center;fontStyle=0;fillColor=#d5e8d4;strokeColor=#82b366;" parent="1" vertex="1">
          <mxGeometry x="682.19" y="1245" width="55.62" height="33.75" as="geometry" />
        </mxCell>
        <mxCell id="_CULSkSqQlY8-LVSlBSp-489" value="curp" style="ellipse;whiteSpace=wrap;html=1;align=center;fillColor=#d5e8d4;strokeColor=#82b366;" parent="1" vertex="1">
          <mxGeometry x="820" y="1480" width="71.25" height="35" as="geometry" />
        </mxCell>
        <mxCell id="_CULSkSqQlY8-LVSlBSp-490" style="edgeStyle=none;rounded=0;orthogonalLoop=1;jettySize=auto;html=1;exitX=0.5;exitY=0;exitDx=0;exitDy=0;endArrow=none;endFill=0;entryX=0.5;entryY=1;entryDx=0;entryDy=0;" parent="1" source="_CULSkSqQlY8-LVSlBSp-491" target="_CULSkSqQlY8-LVSlBSp-502" edge="1">
          <mxGeometry relative="1" as="geometry">
            <mxPoint x="620" y="1630" as="targetPoint" />
          </mxGeometry>
        </mxCell>
        <mxCell id="_CULSkSqQlY8-LVSlBSp-491" value="Taquero" style="whiteSpace=wrap;html=1;align=center;fillColor=#dae8fc;strokeColor=#6c8ebf;" parent="1" vertex="1">
          <mxGeometry x="540" y="1660" width="80" height="40" as="geometry" />
        </mxCell>
        <mxCell id="_CULSkSqQlY8-LVSlBSp-492" style="edgeStyle=none;rounded=0;orthogonalLoop=1;jettySize=auto;html=1;exitX=0.5;exitY=0;exitDx=0;exitDy=0;entryX=0.5;entryY=1;entryDx=0;entryDy=0;endArrow=none;endFill=0;" parent="1" source="_CULSkSqQlY8-LVSlBSp-493" target="_CULSkSqQlY8-LVSlBSp-502" edge="1">
          <mxGeometry relative="1" as="geometry" />
        </mxCell>
        <mxCell id="_CULSkSqQlY8-LVSlBSp-493" value="Parrillero" style="whiteSpace=wrap;html=1;align=center;fillColor=#dae8fc;strokeColor=#6c8ebf;" parent="1" vertex="1">
          <mxGeometry x="455" y="1660" width="70" height="40" as="geometry" />
        </mxCell>
        <mxCell id="_CULSkSqQlY8-LVSlBSp-494" style="edgeStyle=none;rounded=0;orthogonalLoop=1;jettySize=auto;html=1;exitX=0.5;exitY=0;exitDx=0;exitDy=0;entryX=0.5;entryY=1;entryDx=0;entryDy=0;endArrow=none;endFill=0;" parent="1" source="_CULSkSqQlY8-LVSlBSp-495" target="_CULSkSqQlY8-LVSlBSp-502" edge="1">
          <mxGeometry relative="1" as="geometry" />
        </mxCell>
        <mxCell id="_CULSkSqQlY8-LVSlBSp-495" value="Mesero" style="whiteSpace=wrap;html=1;align=center;fillColor=#dae8fc;strokeColor=#6c8ebf;" parent="1" vertex="1">
          <mxGeometry x="628.75" y="1660" width="71.25" height="40" as="geometry" />
        </mxCell>
        <mxCell id="_CULSkSqQlY8-LVSlBSp-496" value="Cajero" style="whiteSpace=wrap;html=1;align=center;fillColor=#dae8fc;strokeColor=#6c8ebf;" parent="1" vertex="1">
          <mxGeometry x="720" y="1660" width="70" height="40" as="geometry" />
        </mxCell>
        <mxCell id="_CULSkSqQlY8-LVSlBSp-497" value="Tortillero" style="whiteSpace=wrap;html=1;align=center;fillColor=#dae8fc;strokeColor=#6c8ebf;" parent="1" vertex="1">
          <mxGeometry x="810" y="1660" width="70" height="40" as="geometry" />
        </mxCell>
        <mxCell id="_CULSkSqQlY8-LVSlBSp-500" style="edgeStyle=none;rounded=0;orthogonalLoop=1;jettySize=auto;html=1;exitX=0.5;exitY=0;exitDx=0;exitDy=0;entryX=0.5;entryY=0;entryDx=0;entryDy=0;endArrow=none;endFill=0;" parent="1" source="_CULSkSqQlY8-LVSlBSp-502" target="_CULSkSqQlY8-LVSlBSp-496" edge="1">
          <mxGeometry relative="1" as="geometry" />
        </mxCell>
        <mxCell id="_CULSkSqQlY8-LVSlBSp-501" style="edgeStyle=none;rounded=0;orthogonalLoop=1;jettySize=auto;html=1;exitX=0.5;exitY=0;exitDx=0;exitDy=0;entryX=0.5;entryY=0;entryDx=0;entryDy=0;endArrow=none;endFill=0;" parent="1" source="_CULSkSqQlY8-LVSlBSp-502" target="_CULSkSqQlY8-LVSlBSp-497" edge="1">
          <mxGeometry relative="1" as="geometry" />
        </mxCell>
        <mxCell id="_CULSkSqQlY8-LVSlBSp-503" value="Pertenecer" style="shape=rhombus;perimeter=rhombusPerimeter;whiteSpace=wrap;html=1;align=center;fillColor=#fff2cc;strokeColor=#d6b656;" parent="1" vertex="1">
          <mxGeometry x="960" y="1810" width="110" height="60" as="geometry" />
        </mxCell>
        <mxCell id="_CULSkSqQlY8-LVSlBSp-504" style="edgeStyle=none;rounded=0;orthogonalLoop=1;jettySize=auto;html=1;entryX=1;entryY=0.5;entryDx=0;entryDy=0;endArrow=none;endFill=0;" parent="1" source="_CULSkSqQlY8-LVSlBSp-505" target="_CULSkSqQlY8-LVSlBSp-415" edge="1">
          <mxGeometry relative="1" as="geometry">
            <mxPoint x="1280" y="1605" as="targetPoint" />
          </mxGeometry>
        </mxCell>
        <mxCell id="_CULSkSqQlY8-LVSlBSp-505" value="marca" style="ellipse;whiteSpace=wrap;html=1;align=center;fillColor=#d5e8d4;strokeColor=#82b366;" parent="1" vertex="1">
          <mxGeometry x="1280" y="1545" width="70" height="35" as="geometry" />
        </mxCell>
        <mxCell id="_CULSkSqQlY8-LVSlBSp-506" style="edgeStyle=none;rounded=0;orthogonalLoop=1;jettySize=auto;html=1;entryX=0.5;entryY=1;entryDx=0;entryDy=0;endArrow=none;endFill=0;" parent="1" source="_CULSkSqQlY8-LVSlBSp-507" target="_CULSkSqQlY8-LVSlBSp-395" edge="1">
          <mxGeometry relative="1" as="geometry">
            <mxPoint x="1460.0000000000002" y="1254.9999999999998" as="targetPoint" />
          </mxGeometry>
        </mxCell>
        <mxCell id="_CULSkSqQlY8-LVSlBSp-507" value="pagoP" style="ellipse;whiteSpace=wrap;html=1;align=center;fillColor=#d5e8d4;strokeColor=#82b366;dashed=1;" parent="1" vertex="1">
          <mxGeometry x="1480" y="1185" width="100" height="41.19" as="geometry" />
        </mxCell>
        <mxCell id="_CULSkSqQlY8-LVSlBSp-502" value="o" style="triangle;whiteSpace=wrap;html=1;direction=south;fillColor=#f5f5f5;fontColor=#333333;strokeColor=#666666;" parent="1" vertex="1">
          <mxGeometry x="674.38" y="1482.5" width="60" height="30" as="geometry" />
        </mxCell>
        <mxCell id="_CULSkSqQlY8-LVSlBSp-511" style="edgeStyle=orthogonalEdgeStyle;rounded=0;orthogonalLoop=1;jettySize=auto;html=1;entryX=1;entryY=0.5;entryDx=0;entryDy=0;endArrow=none;endFill=0;" parent="1" source="_CULSkSqQlY8-LVSlBSp-443" target="_CULSkSqQlY8-LVSlBSp-513" edge="1">
          <mxGeometry relative="1" as="geometry">
            <mxPoint x="1412.5" y="1468.75" as="sourcePoint" />
            <Array as="points">
              <mxPoint x="1410" y="1960" />
            </Array>
          </mxGeometry>
        </mxCell>
        <mxCell id="_CULSkSqQlY8-LVSlBSp-512" style="edgeStyle=orthogonalEdgeStyle;rounded=0;orthogonalLoop=1;jettySize=auto;html=1;exitX=0;exitY=0.5;exitDx=0;exitDy=0;entryX=0.5;entryY=1;entryDx=0;entryDy=0;endArrow=classic;endFill=1;" parent="1" source="_CULSkSqQlY8-LVSlBSp-513" edge="1">
          <mxGeometry relative="1" as="geometry">
            <mxPoint x="664.3750000000002" y="1700" as="targetPoint" />
          </mxGeometry>
        </mxCell>
        <mxCell id="_CULSkSqQlY8-LVSlBSp-513" value="Atender" style="shape=rhombus;perimeter=rhombusPerimeter;whiteSpace=wrap;html=1;align=center;fillColor=#fff2cc;strokeColor=#d6b656;" parent="1" vertex="1">
          <mxGeometry x="1130" y="1930" width="110" height="60" as="geometry" />
        </mxCell>
        <mxCell id="K5OSy2VEWzIT5m9NS0dP-3" style="edgeStyle=orthogonalEdgeStyle;shape=link;rounded=0;orthogonalLoop=1;jettySize=auto;html=1;exitX=1;exitY=0.5;exitDx=0;exitDy=0;" parent="1" source="K5OSy2VEWzIT5m9NS0dP-2" target="_CULSkSqQlY8-LVSlBSp-333" edge="1">
          <mxGeometry relative="1" as="geometry" />
        </mxCell>
        <mxCell id="K5OSy2VEWzIT5m9NS0dP-2" value="Recomendar" style="shape=rhombus;perimeter=rhombusPerimeter;whiteSpace=wrap;html=1;align=center;fillColor=#fff2cc;strokeColor=#d6b656;" parent="1" vertex="1">
          <mxGeometry x="1682.5" y="1558.75" width="100" height="50" as="geometry" />
        </mxCell>
        <mxCell id="cys0PzD_Poah5IU1Xp4--2" style="rounded=0;orthogonalLoop=1;jettySize=auto;html=1;exitX=0.5;exitY=1;exitDx=0;exitDy=0;entryX=0.5;entryY=0;entryDx=0;entryDy=0;endArrow=none;endFill=0;" edge="1" parent="1" source="cys0PzD_Poah5IU1Xp4--1" target="_CULSkSqQlY8-LVSlBSp-329">
          <mxGeometry relative="1" as="geometry" />
        </mxCell>
        <mxCell id="cys0PzD_Poah5IU1Xp4--1" value="precios" style="ellipse;shape=doubleEllipse;margin=3;whiteSpace=wrap;html=1;align=center;fillColor=#d5e8d4;strokeColor=#82b366;" vertex="1" parent="1">
          <mxGeometry x="1650" y="1336.25" width="80" height="30" as="geometry" />
        </mxCell>
      </root>
    </mxGraphModel>
  </diagram>
</mxfile>
